<svg width="15" height="15" viewBox="0 0 15 15" fill="none" xmlns="http://www.w3.org/2000/svg">
<path d="M13.5 3.375H10.6875C10.6875 2.47989 10.3319 1.62145 9.69899 0.988515C9.06605 0.355579 8.20761 0 7.3125 0C6.41739 0 5.55895 0.355579 4.92601 0.988515C4.29308 1.62145 3.9375 2.47989 3.9375 3.375H1.125C0.826631 3.375 0.540483 3.49353 0.329505 3.7045C0.118526 3.91548 0 4.20163 0 4.5V12.9375C0 13.2359 0.118526 13.522 0.329505 13.733C0.540483 13.944 0.826631 14.0625 1.125 14.0625H13.5C13.7984 14.0625 14.0845 13.944 14.2955 13.733C14.5065 13.522 14.625 13.2359 14.625 12.9375V4.5C14.625 4.20163 14.5065 3.91548 14.2955 3.7045C14.0845 3.49353 13.7984 3.375 13.5 3.375ZM7.3125 1.125C7.90924 1.125 8.48153 1.36205 8.90349 1.78401C9.32545 2.20597 9.5625 2.77826 9.5625 3.375H5.0625C5.0625 2.77826 5.29955 2.20597 5.72151 1.78401C6.14347 1.36205 6.71576 1.125 7.3125 1.125ZM13.5 12.9375H1.125V4.5H3.9375V5.625C3.9375 5.77418 3.99676 5.91726 4.10225 6.02275C4.20774 6.12824 4.35082 6.1875 4.5 6.1875C4.64918 6.1875 4.79226 6.12824 4.89775 6.02275C5.00324 5.91726 5.0625 5.77418 5.0625 5.625V4.5H9.5625V5.625C9.5625 5.77418 9.62176 5.91726 9.72725 6.02275C9.83274 6.12824 9.97582 6.1875 10.125 6.1875C10.2742 6.1875 10.4173 6.12824 10.5227 6.02275C10.6282 5.91726 10.6875 5.77418 10.6875 5.625V4.5H13.5V12.9375Z" fill="#232323"/>
</svg>
