<svg width="20" height="20" viewBox="0 0 20 20" fill="none" xmlns="http://www.w3.org/2000/svg">
<path d="M18.1633 16.8369L14.4531 13.1251C15.5656 11.6755 16.0849 9.85701 15.9059 8.03853C15.7268 6.22005 14.8628 4.53777 13.489 3.33294C12.1152 2.12811 10.3345 1.49096 8.50822 1.55073C6.68193 1.6105 4.94675 2.36272 3.65467 3.65479C2.3626 4.94687 1.61038 6.68205 1.55061 8.50834C1.49084 10.3346 2.12799 12.1153 3.33282 13.4891C4.53765 14.8629 6.21993 15.7269 8.03841 15.906C9.85688 16.085 11.6754 15.5657 13.125 14.4533L16.8383 18.1673C16.9255 18.2545 17.029 18.3237 17.143 18.3709C17.2569 18.4181 17.379 18.4424 17.5024 18.4424C17.6257 18.4424 17.7478 18.4181 17.8617 18.3709C17.9757 18.3237 18.0792 18.2545 18.1664 18.1673C18.2536 18.0801 18.3228 17.9766 18.37 17.8626C18.4172 17.7487 18.4415 17.6266 18.4415 17.5033C18.4415 17.3799 18.4172 17.2578 18.37 17.1439C18.3228 17.0299 18.2536 16.9264 18.1664 16.8392L18.1633 16.8369ZM3.43752 8.75014C3.43752 7.69942 3.74909 6.67231 4.33283 5.79867C4.91658 4.92503 5.74628 4.24412 6.71701 3.84203C7.68774 3.43994 8.75591 3.33473 9.78643 3.53972C10.817 3.7447 11.7636 4.25067 12.5065 4.99363C13.2495 5.7366 13.7555 6.6832 13.9604 7.71372C14.1654 8.74424 14.0602 9.81241 13.6581 10.7831C13.256 11.7539 12.5751 12.5836 11.7015 13.1673C10.8278 13.7511 9.80073 14.0626 8.75002 14.0626C7.3415 14.0612 5.99108 13.501 4.99511 12.505C3.99914 11.5091 3.43896 10.1587 3.43752 8.75014Z" fill="black"/>
</svg>
