<svg width="18" height="18" viewBox="0 0 18 18" fill="none" xmlns="http://www.w3.org/2000/svg">
<path d="M15.023 7.14828L9.39804 12.7733C9.3458 12.8256 9.28376 12.8671 9.21547 12.8954C9.14719 12.9237 9.07399 12.9383 9.00007 12.9383C8.92615 12.9383 8.85295 12.9237 8.78466 12.8954C8.71638 12.8671 8.65434 12.8256 8.6021 12.7733L2.9771 7.14828C2.87155 7.04273 2.81226 6.89958 2.81226 6.75031C2.81226 6.60105 2.87155 6.45789 2.9771 6.35234C3.08265 6.2468 3.2258 6.1875 3.37507 6.1875C3.52434 6.1875 3.66749 6.2468 3.77304 6.35234L9.00007 11.5801L14.2271 6.35234C14.2794 6.30008 14.3414 6.25863 14.4097 6.23034C14.478 6.20206 14.5512 6.1875 14.6251 6.1875C14.699 6.1875 14.7722 6.20206 14.8404 6.23034C14.9087 6.25863 14.9708 6.30008 15.023 6.35234C15.0753 6.40461 15.1168 6.46665 15.145 6.53493C15.1733 6.60322 15.1879 6.6764 15.1879 6.75031C15.1879 6.82422 15.1733 6.89741 15.145 6.96569C15.1168 7.03398 15.0753 7.09602 15.023 7.14828Z" fill="#232323" fill-opacity="0.6"/>
</svg>
