<svg width="22" height="22" viewBox="0 0 22 22" fill="none" xmlns="http://www.w3.org/2000/svg">
<path d="M2.29163 10.9993C2.29163 6.8942 2.29163 4.84163 3.56693 3.56632C4.84224 2.29102 6.89481 2.29102 11 2.29102C15.1051 2.29102 17.1577 2.29102 18.433 3.56632C19.7083 4.84163 19.7083 6.8942 19.7083 10.9993C19.7083 15.1045 19.7083 17.1571 18.433 18.4324C17.1577 19.7077 15.1051 19.7077 11 19.7077C6.89481 19.7077 4.84224 19.7077 3.56693 18.4324C2.29163 17.1571 2.29163 15.1045 2.29163 10.9993Z" stroke="#F8F8F8" stroke-width="1.375" stroke-linejoin="round"/>
<path d="M15.1249 11C15.1249 13.2782 13.2781 15.125 10.9999 15.125C8.72176 15.125 6.87494 13.2782 6.87494 11C6.87494 8.72183 8.72176 6.875 10.9999 6.875C13.2781 6.875 15.1249 8.72183 15.1249 11Z" stroke="#F8F8F8" stroke-width="1.375"/>
<path d="M16.0488 5.95898L16.0398 5.95898" stroke="#F8F8F8" stroke-width="1.83333" stroke-linecap="round" stroke-linejoin="round"/>
</svg>
