<svg width="18" height="18" viewBox="0 0 18 18" fill="none" xmlns="http://www.w3.org/2000/svg">
<path fill-rule="evenodd" clip-rule="evenodd" d="M8.99739 0C4.03585 0 0 4.03698 0 8.99992C0 10.9682 0.634741 12.7935 1.71375 14.2751L0.592346 17.6189L4.05167 16.5133C5.47447 17.4551 7.17241 18 9.00261 18C13.9642 18 18 13.9629 18 9.00008C18 4.03714 13.9642 0.000148773 9.00261 0.000148773L8.99739 0ZM6.48482 4.57156C6.31031 4.1536 6.17804 4.13778 5.91367 4.12703C5.82365 4.1218 5.72333 4.11658 5.61211 4.11658C5.26817 4.11658 4.90855 4.21707 4.69164 4.43927C4.42726 4.7091 3.77131 5.33864 3.77131 6.6297C3.77131 7.92076 4.71284 9.1694 4.83973 9.34411C4.97199 9.51852 6.67529 12.2064 9.31998 13.3018C11.3881 14.1589 12.0018 14.0795 12.4725 13.979C13.1601 13.8309 14.0224 13.3227 14.2393 12.7091C14.4562 12.0953 14.4562 11.5714 14.3926 11.4603C14.3291 11.3492 14.1545 11.2859 13.8901 11.1535C13.6257 11.0212 12.3403 10.3862 12.0969 10.3016C11.8588 10.2117 11.6315 10.2435 11.4517 10.4975C11.1978 10.852 10.9493 11.2119 10.7482 11.4287C10.5895 11.598 10.3302 11.6192 10.1134 11.5292C9.82247 11.4076 9.00799 11.1217 8.00288 10.2275C7.22527 9.5345 6.69636 8.67216 6.54305 8.41293C6.38958 8.14848 6.5272 7.99482 6.64872 7.85207C6.78098 7.68796 6.90789 7.57163 7.04015 7.41813C7.17242 7.26477 7.24647 7.18533 7.33111 7.0054C7.42113 6.83084 7.35752 6.6509 7.29408 6.5186C7.23063 6.3863 6.70172 5.09524 6.48482 4.57156Z" fill="#F8F8F8"/>
</svg>
