<svg width="440" height="150" viewBox="0 0 440 150" fill="none" xmlns="http://www.w3.org/2000/svg">
<path d="M279.5 0.5V149.5H160.5V27.8965L184.229 0.5H279.5Z" fill="white" stroke="#0F0F0F"/>
<path d="M202.1 62.0223C202.187 62.1098 202.257 62.2136 202.304 62.3279C202.351 62.4421 202.375 62.5646 202.375 62.6883C202.375 62.8119 202.351 62.9344 202.304 63.0487C202.257 63.1629 202.187 63.2668 202.1 63.3542C202.013 63.4417 201.91 63.511 201.796 63.5584C201.682 63.6057 201.56 63.6301 201.437 63.6301C201.314 63.6301 201.192 63.6057 201.078 63.5584C200.964 63.511 200.861 63.4417 200.774 63.3542L193 55.5476L185.225 63.3542C185.049 63.5308 184.811 63.6301 184.562 63.6301C184.313 63.6301 184.075 63.5308 183.899 63.3542C183.723 63.1776 183.624 62.938 183.624 62.6883C183.624 62.4385 183.723 62.1989 183.899 62.0223L191.674 54.2169L183.899 46.4114C183.723 46.2348 183.624 45.9953 183.624 45.7455C183.624 45.4957 183.723 45.2562 183.899 45.0796C184.075 44.9029 184.313 44.8037 184.562 44.8037C184.811 44.8037 185.049 44.9029 185.225 45.0796L193 52.8862L200.774 45.0796C200.95 44.9029 201.188 44.8037 201.437 44.8037C201.686 44.8037 201.924 44.9029 202.1 45.0796C202.276 45.2562 202.375 45.4957 202.375 45.7455C202.375 45.9953 202.276 46.2348 202.1 46.4114L194.325 54.2169L202.1 62.0223Z" fill="#0F0F0F"/>
<path d="M256.101 62.0223C256.188 62.1097 256.258 62.2136 256.305 62.3278C256.352 62.4421 256.376 62.5646 256.376 62.6882C256.376 62.8119 256.352 62.9344 256.305 63.0486C256.258 63.1629 256.188 63.2667 256.101 63.3542C256.014 63.4416 255.911 63.511 255.797 63.5583C255.683 63.6057 255.561 63.63 255.438 63.63C255.315 63.63 255.193 63.6057 255.079 63.5583C254.965 63.511 254.862 63.4416 254.775 63.3542L247.001 55.5476L239.226 63.3542C239.05 63.5308 238.812 63.63 238.563 63.63C238.314 63.63 238.076 63.5308 237.9 63.3542C237.724 63.1776 237.625 62.938 237.625 62.6882C237.625 62.4385 237.724 62.1989 237.9 62.0223L245.675 54.2169L237.9 46.4114C237.724 46.2348 237.625 45.9952 237.625 45.7455C237.625 45.4957 237.724 45.2561 237.9 45.0795C238.076 44.9029 238.314 44.8037 238.563 44.8037C238.812 44.8037 239.05 44.9029 239.226 45.0795L247.001 52.8861L254.775 45.0795C254.951 44.9029 255.189 44.8037 255.438 44.8037C255.687 44.8037 255.925 44.9029 256.101 45.0795C256.277 45.2561 256.376 45.4957 256.376 45.7455C256.376 45.9952 256.277 46.2348 256.101 46.4114L248.326 54.2169L256.101 62.0223Z" fill="#0F0F0F"/>
<rect x="179.2" y="93.3735" width="82.2" height="4.81928" fill="black"/>
<path d="M202.318 97.867V104.844C202.318 107.339 200.295 109.362 197.8 109.362C195.304 109.362 193.281 107.339 193.281 104.844V97.867H202.318Z" stroke="#0F0F0F" stroke-width="2.96267"/>
<path d="M184.996 1V28.7108H160.996" stroke="#0F0F0F"/>
<path d="M0 126.563V94.9219L60.7256 0H89.6145V42.1875H73.1066L40.3855 93.75V94.9219H130V126.563H0ZM73.4014 150V116.895L74.2857 103.125V0H112.608V150H73.4014Z" fill="black"/>
<path d="M310 126.563V94.9219L370.726 0H399.615V42.1875H383.107L350.385 93.75V94.9219H440V126.563H310ZM383.401 150V116.895L384.286 103.125V0H422.608V150H383.401Z" fill="black"/>
</svg>
