<svg xmlns="http://www.w3.org/2000/svg" style="display: none;">
  <symbol id="cart-empty" viewBox="0 0 18 18" fill="none">
    <path d="M15.1875 4.5H12.375C12.375 3.60489 12.0194 2.74645 11.3865 2.11351C10.7536 1.48058 9.89511 1.125 9 1.125C8.10489 1.125 7.24645 1.48058 6.61351 2.11351C5.98058 2.74645 5.625 3.60489 5.625 4.5H2.8125C2.51413 4.5 2.22798 4.61853 2.017 4.8295C1.80603 5.04048 1.6875 5.32663 1.6875 5.625V14.0625C1.6875 14.3609 1.80603 14.647 2.017 14.858C2.22798 15.069 2.51413 15.1875 2.8125 15.1875H15.1875C15.4859 15.1875 15.772 15.069 15.983 14.858C16.194 14.647 16.3125 14.3609 16.3125 14.0625V5.625C16.3125 5.32663 16.194 5.04048 15.983 4.8295C15.772 4.61853 15.4859 4.5 15.1875 4.5ZM9 2.25C9.59674 2.25 10.169 2.48705 10.591 2.90901C11.0129 3.33097 11.25 3.90326 11.25 4.5H6.75C6.75 3.90326 6.98705 3.33097 7.40901 2.90901C7.83097 2.48705 8.40326 2.25 9 2.25ZM15.1875 14.0625H2.8125V5.625H5.625V6.75C5.625 6.89918 5.68426 7.04226 5.78975 7.14775C5.89524 7.25324 6.03832 7.3125 6.1875 7.3125C6.33668 7.3125 6.47976 7.25324 6.58525 7.14775C6.69074 7.04226 6.75 6.89918 6.75 6.75V5.625H11.25V6.75C11.25 6.89918 11.3093 7.04226 11.4148 7.14775C11.5202 7.25324 11.6633 7.3125 11.8125 7.3125C11.9617 7.3125 12.1048 7.25324 12.2102 7.14775C12.3157 7.04226 12.375 6.89918 12.375 6.75V5.625H15.1875V14.0625Z" fill="currentColor"/>
  </symbol>
  
  <symbol id="cart-full" viewBox="0 0 18 18" fill="none">
    <path d="M15.1875 4.5H12.375C12.375 3.60489 12.0194 2.74645 11.3865 2.11351C10.7536 1.48058 9.89511 1.125 9 1.125C8.10489 1.125 7.24645 1.48058 6.61351 2.11351C5.98058 2.74645 5.625 3.60489 5.625 4.5H2.8125C2.51413 4.5 2.22798 4.61853 2.017 4.82951C1.80603 5.04048 1.6875 5.32663 1.6875 5.625V14.0625C1.6875 14.3609 1.80603 14.647 2.017 14.858C2.22798 15.069 2.51413 15.1875 2.8125 15.1875H15.1875C15.4859 15.1875 15.772 15.069 15.983 14.858C16.194 14.647 16.3125 14.3609 16.3125 14.0625V5.625C16.3125 5.32663 16.194 5.04048 15.983 4.82951C15.772 4.61853 15.4859 4.5 15.1875 4.5ZM6.75 7.3125C6.75 7.46168 6.69074 7.60476 6.58525 7.71025C6.47976 7.81574 6.33668 7.875 6.1875 7.875C6.03832 7.875 5.89524 7.81574 5.78975 7.71025C5.68426 7.60476 5.625 7.46168 5.625 7.3125V6.1875C5.625 6.03832 5.68426 5.89524 5.78975 5.78975C5.89524 5.68426 6.03832 5.625 6.1875 5.625C6.33668 5.625 6.47976 5.68426 6.58525 5.78975C6.69074 5.89524 6.75 6.03832 6.75 6.1875V7.3125ZM9 2.25C9.59674 2.25 10.169 2.48705 10.591 2.90901C11.0129 3.33097 11.25 3.90326 11.25 4.5H6.75C6.75 3.90326 6.98705 3.33097 7.40901 2.90901C7.83097 2.48705 8.40326 2.25 9 2.25ZM12.375 7.3125C12.375 7.46168 12.3157 7.60476 12.2102 7.71025C12.1048 7.81574 11.9617 7.875 11.8125 7.875C11.6633 7.875 11.5202 7.81574 11.4148 7.71025C11.3093 7.60476 11.25 7.46168 11.25 7.3125V6.1875C11.25 6.03832 11.3093 5.89524 11.4148 5.78975C11.5202 5.68426 11.6633 5.625 11.8125 5.625C11.9617 5.625 12.1048 5.68426 12.2102 5.78975C12.3157 5.89524 12.375 6.03832 12.375 6.1875V7.3125Z" fill="currentColor" />
  </symbol>

  <symbol id="favorites-empty" viewBox="0 0 18 18" fill="none">
    <path d="M12.5156 2.8125C11.0637 2.8125 9.79242 3.43687 9 4.49227C8.20758 3.43687 6.93633 2.8125 5.48438 2.8125C4.3286 2.8138 3.22053 3.27351 2.40327 4.09077C1.58601 4.90803 1.1263 6.0161 1.125 7.17188C1.125 12.0938 8.42273 16.0777 8.73352 16.2422C8.81543 16.2863 8.90699 16.3093 9 16.3093C9.09301 16.3093 9.18457 16.2863 9.26648 16.2422C9.57726 16.0777 16.875 12.0938 16.875 7.17188C16.8737 6.0161 16.414 4.90803 15.5967 4.09077C14.7795 3.27351 13.6714 2.8138 12.5156 2.8125ZM9 15.1031C7.71609 14.355 2.25 10.947 2.25 7.17188C2.25112 6.31441 2.59224 5.49238 3.19856 4.88606C3.80488 4.27974 4.62691 3.93862 5.48438 3.9375C6.85195 3.9375 8.00016 4.66594 8.47969 5.83594C8.52207 5.93911 8.59416 6.02735 8.6868 6.08945C8.77945 6.15155 8.88847 6.18471 9 6.18471C9.11153 6.18471 9.22055 6.15155 9.3132 6.08945C9.40584 6.02735 9.47793 5.93911 9.52031 5.83594C9.99984 4.66383 11.148 3.9375 12.5156 3.9375C13.3731 3.93862 14.1951 4.27974 14.8014 4.88606C15.4078 5.49238 15.7489 6.31441 15.75 7.17188C15.75 10.9413 10.2825 14.3543 9 15.1031Z" fill="currentColor" />
  </symbol>

  <symbol id="favorites-full" viewBox="0 0 18 18" fill="none">
    <path d="M16.875 7.17188C16.875 12.0938 9.57726 16.0777 9.26648 16.2422C9.18457 16.2863 9.09301 16.3093 9 16.3093C8.90699 16.3093 8.81543 16.2863 8.73352 16.2422C8.42273 16.0777 1.125 12.0938 1.125 7.17188C1.1263 6.0161 1.58601 4.90803 2.40327 4.09077C3.22053 3.27351 4.3286 2.8138 5.48438 2.8125C6.93633 2.8125 8.20758 3.43687 9 4.49227C9.79242 3.43687 11.0637 2.8125 12.5156 2.8125C13.6714 2.8138 14.7795 3.27351 15.5967 4.09077C16.414 4.90803 16.8737 6.0161 16.875 7.17188Z" fill="currentColor" />
  </symbol>

  <symbol id="quantity-decrement" viewBox="0 0 20 20" fill="none">
    <path d="M17.5 10C17.5 10.1658 17.4342 10.3247 17.3169 10.4419C17.1997 10.5592 17.0408 10.625 16.875 10.625H3.125C2.95924 10.625 2.80027 10.5592 2.68306 10.4419C2.56585 10.3247 2.5 10.1658 2.5 10C2.5 9.83424 2.56585 9.67527 2.68306 9.55806C2.80027 9.44085 2.95924 9.375 3.125 9.375H16.875C17.0408 9.375 17.1997 9.44085 17.3169 9.55806C17.4342 9.67527 17.5 9.83424 17.5 10Z" fill="#343330" />
  <symbol>

  <symbol id="quantity-increment" viewBox="0 0 20 20" fill="none">
    <path d="M17.5 10C17.5 10.1658 17.4342 10.3247 17.3169 10.4419C17.1997 10.5592 17.0408 10.625 16.875 10.625H10.625V16.875C10.625 17.0408 10.5592 17.1997 10.4419 17.3169C10.3247 17.4342 10.1658 17.5 10 17.5C9.83424 17.5 9.67527 17.4342 9.55806 17.3169C9.44085 17.1997 9.375 17.0408 9.375 16.875V10.625H3.125C2.95924 10.625 2.80027 10.5592 2.68306 10.4419C2.56585 10.3247 2.5 10.1658 2.5 10C2.5 9.83424 2.56585 9.67527 2.68306 9.55806C2.80027 9.44085 2.95924 9.375 3.125 9.375H9.375V3.125C9.375 2.95924 9.44085 2.80027 9.55806 2.68306C9.67527 2.56585 9.83424 2.5 10 2.5C10.1658 2.5 10.3247 2.56585 10.4419 2.68306C10.5592 2.80027 10.625 2.95924 10.625 3.125V9.375H16.875C17.0408 9.375 17.1997 9.44085 17.3169 9.55806C17.4342 9.67527 17.5 9.83424 17.5 10Z" fill="#343330" />
  </symbol>

  <symbol id="to-favorite" viewBox="0 0 20 20" fill="none">
      <path d="M13.9062 3.125C12.293 3.125 10.8805 3.81875 10 4.99141C9.11953 3.81875 7.70703 3.125 6.09375 3.125C4.80955 3.12645 3.57837 3.63723 2.6703 4.5453C1.76223 5.45337 1.25145 6.68455 1.25 7.96875C1.25 13.4375 9.35859 17.8641 9.70391 18.0469C9.79492 18.0958 9.89665 18.1215 10 18.1215C10.1033 18.1215 10.2051 18.0958 10.2961 18.0469C10.6414 17.8641 18.75 13.4375 18.75 7.96875C18.7486 6.68455 18.2378 5.45337 17.3297 4.5453C16.4216 3.63723 15.1904 3.12645 13.9062 3.125ZM10 16.7813C8.57344 15.95 2.5 12.1633 2.5 7.96875C2.50124 7.01601 2.88026 6.10265 3.55396 5.42896C4.22765 4.75526 5.14101 4.37624 6.09375 4.375C7.61328 4.375 8.88906 5.18438 9.42188 6.48438C9.46896 6.59901 9.54907 6.69705 9.65201 6.76605C9.75494 6.83505 9.87607 6.8719 10 6.8719C10.1239 6.8719 10.2451 6.83505 10.348 6.76605C10.4509 6.69705 10.531 6.59901 10.5781 6.48438C11.1109 5.18203 12.3867 4.375 13.9062 4.375C14.859 4.37624 15.7724 4.75526 16.446 5.42896C17.1197 6.10265 17.4988 7.01601 17.5 7.96875C17.5 12.157 11.425 15.9492 10 16.7813Z" fill="#3936FF" />
  </symbol>

  <symbol id="to-favorite-checked" viewBox="0 0 20 20" fill="none">
      <path d="M13.9062 3.125C12.293 3.125 10.8805 3.81875 10 4.99141C9.11953 3.81875 7.70703 3.125 6.09375 3.125C4.80955 3.12645 3.57837 3.63723 2.6703 4.5453C1.76223 5.45337 1.25145 6.68455 1.25 7.96875C1.25 13.4375 9.35859 17.8641 9.70391 18.0469C9.79492 18.0958 9.89665 18.1215 10 18.1215C10.1033 18.1215 10.2051 18.0958 10.2961 18.0469C10.6414 17.8641 18.75 13.4375 18.75 7.96875C18.7486 6.68455 18.2378 5.45337 17.3297 4.5453C16.4216 3.63723 15.1904 3.12645 13.9062 3.125ZM10 16.7813C8.57344 15.95 2.5 12.1633 2.5 7.96875C2.50124 7.01601 2.88026 6.10265 3.55396 5.42896C4.22765 4.75526 5.14101 4.37624 6.09375 4.375C7.61328 4.375 8.88906 5.18438 9.42188 6.48438C9.46896 6.59901 9.54907 6.69705 9.65201 6.76605C9.75494 6.83505 9.87607 6.8719 10 6.8719C10.1239 6.8719 10.2451 6.83505 10.348 6.76605C10.4509 6.69705 10.531 6.59901 10.5781 6.48438C11.1109 5.18203 12.3867 4.375 13.9062 4.375C14.859 4.37624 15.7724 4.75526 16.446 5.42896C17.1197 6.10265 17.4988 7.01601 17.5 7.96875C17.5 12.157 11.425 15.9492 10 16.7813Z" fill="white" />
  </symbol>

  <symbol id="rating-star" viewBox="0 0 14 14" fill="none">
    <path d="M7 0.5L8.5716 5.33688H13.6574L9.5429 8.32624L11.1145 13.1631L7 10.1738L2.8855 13.1631L4.4571 8.32624L0.342604 5.33688H5.4284L7 0.5Z" fill="#F67D00" />
  </symbol>

  <symbol id='article-like' viewBox="0 0 18 18" fill="none">
    <path d="M12.5156 2.8125C11.0637 2.8125 9.79242 3.43687 9 4.49227C8.20758 3.43687 6.93633 2.8125 5.48438 2.8125C4.3286 2.8138 3.22053 3.27351 2.40327 4.09077C1.58601 4.90803 1.1263 6.0161 1.125 7.17188C1.125 12.0938 8.42273 16.0777 8.73352 16.2422C8.81543 16.2863 8.90699 16.3093 9 16.3093C9.09301 16.3093 9.18457 16.2863 9.26648 16.2422C9.57726 16.0777 16.875 12.0938 16.875 7.17188C16.8737 6.0161 16.414 4.90803 15.5967 4.09077C14.7795 3.27351 13.6714 2.8138 12.5156 2.8125ZM9 15.1031C7.71609 14.355 2.25 10.947 2.25 7.17188C2.25112 6.31441 2.59224 5.49238 3.19856 4.88606C3.80488 4.27974 4.62691 3.93862 5.48438 3.9375C6.85195 3.9375 8.00016 4.66594 8.47969 5.83594C8.52207 5.93911 8.59416 6.02735 8.6868 6.08945C8.77945 6.15155 8.88847 6.18471 9 6.18471C9.11153 6.18471 9.22055 6.15155 9.3132 6.08945C9.40584 6.02735 9.47793 5.93911 9.52031 5.83594C9.99984 4.66383 11.148 3.9375 12.5156 3.9375C13.3731 3.93862 14.1951 4.27974 14.8014 4.88606C15.4078 5.49238 15.7489 6.31441 15.75 7.17188C15.75 10.9413 10.2825 14.3543 9 15.1031Z" fill="#3936FF" />
  </symbol>

  <symbol id='article-like-checked' viewBox="0 0 18 18" fill="none">
    <path d="M16.875 7.17188C16.875 12.0938 9.57726 16.0777 9.26648 16.2422C9.18457 16.2863 9.09301 16.3093 9 16.3093C8.90699 16.3093 8.81543 16.2863 8.73352 16.2422C8.42273 16.0777 1.125 12.0938 1.125 7.17188C1.1263 6.0161 1.58601 4.90803 2.40327 4.09077C3.22053 3.27351 4.3286 2.8138 5.48438 2.8125C6.93633 2.8125 8.20758 3.43687 9 4.49227C9.79242 3.43687 11.0637 2.8125 12.5156 2.8125C13.6714 2.8138 14.7795 3.27351 15.5967 4.09077C16.414 4.90803 16.8737 6.0161 16.875 7.17188Z" fill="white" />
  </symbol>

  <symbol id='search-icon-closed' viewBox="0 0 20 20" fill="none">
    <path d="M17.9422 17.0577L14.0305 13.1468C15.1642 11.7856 15.7296 10.0398 15.6089 8.27238C15.4883 6.505 14.6909 4.85217 13.3826 3.65772C12.0744 2.46328 10.356 1.8192 8.58492 1.85944C6.81388 1.89969 5.12653 2.62118 3.87389 3.87383C2.62125 5.12647 1.89976 6.81382 1.85951 8.58486C1.81926 10.3559 2.46334 12.0743 3.65779 13.3825C4.85223 14.6908 6.50506 15.4882 8.27244 15.6089C10.0398 15.7295 11.7857 15.1642 13.1469 14.0304L17.0578 17.9421C17.1159 18.0002 17.1848 18.0463 17.2607 18.0777C17.3366 18.1091 17.4179 18.1253 17.5 18.1253C17.5821 18.1253 17.6634 18.1091 17.7393 18.0777C17.8152 18.0463 17.8841 18.0002 17.9422 17.9421C18.0003 17.8841 18.0463 17.8151 18.0777 17.7392C18.1092 17.6634 18.1253 17.5821 18.1253 17.4999C18.1253 17.4178 18.1092 17.3365 18.0777 17.2606C18.0463 17.1848 18.0003 17.1158 17.9422 17.0577ZM3.125 8.74993C3.125 7.63741 3.4549 6.54988 4.07298 5.62485C4.69106 4.69982 5.56957 3.97885 6.5974 3.55311C7.62524 3.12737 8.75623 3.01598 9.84738 3.23302C10.9385 3.45006 11.9408 3.98579 12.7275 4.77246C13.5141 5.55913 14.0499 6.56141 14.2669 7.65255C14.484 8.74369 14.3726 9.87469 13.9468 10.9025C13.5211 11.9304 12.8001 12.8089 11.8751 13.427C10.9501 14.045 9.86251 14.3749 8.75 14.3749C7.25866 14.3733 5.82888 13.7801 4.77435 12.7256C3.71981 11.671 3.12665 10.2413 3.125 8.74993Z" fill="#0F0F0F" />
  </symbol>

  <symbol id='search-icon-opened' viewBox="0 0 20 20" fill="none">
    <path d="M17.9422 17.0577L14.0305 13.1468C15.1642 11.7856 15.7296 10.0398 15.6089 8.27238C15.4883 6.50499 14.6909 4.85217 13.3826 3.65772C12.0744 2.46328 10.356 1.8192 8.58492 1.85944C6.81388 1.89969 5.12653 2.62118 3.87389 3.87383C2.62125 5.12647 1.89976 6.81382 1.85951 8.58486C1.81926 10.3559 2.46334 12.0743 3.65779 13.3825C4.85223 14.6908 6.50506 15.4882 8.27244 15.6089C10.0398 15.7295 11.7857 15.1642 13.1469 14.0304L17.0578 17.9421C17.1159 18.0002 17.1848 18.0463 17.2607 18.0777C17.3366 18.1091 17.4179 18.1253 17.5 18.1253C17.5821 18.1253 17.6634 18.1091 17.7393 18.0777C17.8152 18.0463 17.8841 18.0002 17.9422 17.9421C18.0003 17.8841 18.0463 17.8151 18.0777 17.7392C18.1092 17.6634 18.1253 17.5821 18.1253 17.4999C18.1253 17.4178 18.1092 17.3365 18.0777 17.2606C18.0463 17.1848 18.0003 17.1158 17.9422 17.0577ZM3.125 8.74993C3.125 7.63741 3.4549 6.54988 4.07298 5.62485C4.69106 4.69982 5.56957 3.97885 6.5974 3.55311C7.62524 3.12737 8.75624 3.01598 9.84738 3.23302C10.9385 3.45006 11.9408 3.98579 12.7275 4.77246C13.5141 5.55913 14.0499 6.56141 14.2669 7.65255C14.484 8.74369 14.3726 9.87469 13.9468 10.9025C13.5211 11.9304 12.8001 12.8089 11.8751 13.427C10.9501 14.045 9.86252 14.3749 8.75 14.3749C7.25866 14.3733 5.82888 13.7801 4.77435 12.7256C3.71981 11.6711 3.12665 10.2413 3.125 8.74993Z" fill="white" />
  </symbol>
</svg>