<svg width="18" height="18" viewBox="0 0 18 18" fill="none" xmlns="http://www.w3.org/2000/svg">
<path d="M16.2373 15.4687C16.1879 15.5542 16.1169 15.6253 16.0314 15.6746C15.9458 15.724 15.8488 15.75 15.75 15.75H2.25003C2.15134 15.7499 2.05442 15.7238 1.96899 15.6744C1.88356 15.625 1.81263 15.554 1.76333 15.4685C1.71403 15.383 1.68809 15.286 1.68811 15.1873C1.68814 15.0886 1.71413 14.9917 1.76347 14.9062C2.83433 13.0549 4.48456 11.7274 6.41042 11.0981C5.45781 10.531 4.71768 9.66686 4.30371 8.63841C3.88974 7.60996 3.82481 6.47405 4.1189 5.40513C4.41298 4.33621 5.04982 3.39338 5.93161 2.72142C6.81341 2.04947 7.89139 1.68555 9.00003 1.68555C10.1087 1.68555 11.1867 2.04947 12.0685 2.72142C12.9502 3.39338 13.5871 4.33621 13.8812 5.40513C14.1753 6.47405 14.1103 7.60996 13.6964 8.63841C13.2824 9.66686 12.5423 10.531 11.5896 11.0981C13.5155 11.7274 15.1657 13.0549 16.2366 14.9062C16.2861 14.9917 16.3122 15.0886 16.3123 15.1874C16.3124 15.2861 16.2866 15.3831 16.2373 15.4687Z" fill="#232323" fill-opacity="0.8"/>
</svg>
