<svg width="18" height="18" viewBox="0 0 18 18" fill="none" xmlns="http://www.w3.org/2000/svg">
<path d="M14.625 2.25H12.9375V1.6875C12.9375 1.53832 12.8782 1.39524 12.7727 1.28975C12.6673 1.18426 12.5242 1.125 12.375 1.125C12.2258 1.125 12.0827 1.18426 11.9773 1.28975C11.8718 1.39524 11.8125 1.53832 11.8125 1.6875V2.25H6.1875V1.6875C6.1875 1.53832 6.12824 1.39524 6.02275 1.28975C5.91726 1.18426 5.77418 1.125 5.625 1.125C5.47582 1.125 5.33274 1.18426 5.22725 1.28975C5.12176 1.39524 5.0625 1.53832 5.0625 1.6875V2.25H3.375C3.07663 2.25 2.79048 2.36853 2.5795 2.5795C2.36853 2.79048 2.25 3.07663 2.25 3.375V14.625C2.25 14.9234 2.36853 15.2095 2.5795 15.4205C2.79048 15.6315 3.07663 15.75 3.375 15.75H14.625C14.9234 15.75 15.2095 15.6315 15.4205 15.4205C15.6315 15.2095 15.75 14.9234 15.75 14.625V3.375C15.75 3.07663 15.6315 2.79048 15.4205 2.5795C15.2095 2.36853 14.9234 2.25 14.625 2.25ZM5.90625 12.9375C5.73937 12.9375 5.57624 12.888 5.43749 12.7953C5.29873 12.7026 5.19059 12.5708 5.12673 12.4166C5.06287 12.2625 5.04616 12.0928 5.07871 11.9291C5.11127 11.7655 5.19163 11.6151 5.30963 11.4971C5.42763 11.3791 5.57797 11.2988 5.74164 11.2662C5.90531 11.2337 6.07496 11.2504 6.22914 11.3142C6.38331 11.3781 6.51509 11.4862 6.6078 11.625C6.70052 11.7637 6.75 11.9269 6.75 12.0938C6.75 12.3175 6.66111 12.5321 6.50287 12.6904C6.34464 12.8486 6.13003 12.9375 5.90625 12.9375ZM9 12.9375C8.83312 12.9375 8.66999 12.888 8.53124 12.7953C8.39248 12.7026 8.28434 12.5708 8.22048 12.4166C8.15662 12.2625 8.13991 12.0928 8.17246 11.9291C8.20502 11.7655 8.28538 11.6151 8.40338 11.4971C8.52138 11.3791 8.67172 11.2988 8.83539 11.2662C8.99906 11.2337 9.16871 11.2504 9.32289 11.3142C9.47706 11.3781 9.60884 11.4862 9.70155 11.625C9.79426 11.7637 9.84375 11.9269 9.84375 12.0938C9.84375 12.3175 9.75485 12.5321 9.59662 12.6904C9.43839 12.8486 9.22378 12.9375 9 12.9375ZM9 10.125C8.83312 10.125 8.66999 10.0755 8.53124 9.9828C8.39248 9.89009 8.28434 9.75831 8.22048 9.60414C8.15662 9.44996 8.13991 9.28031 8.17246 9.11664C8.20502 8.95297 8.28538 8.80263 8.40338 8.68463C8.52138 8.56663 8.67172 8.48627 8.83539 8.45371C8.99906 8.42116 9.16871 8.43787 9.32289 8.50173C9.47706 8.56559 9.60884 8.67373 9.70155 8.81249C9.79426 8.95124 9.84375 9.11437 9.84375 9.28125C9.84375 9.50503 9.75485 9.71964 9.59662 9.87787C9.43839 10.0361 9.22378 10.125 9 10.125ZM12.0938 12.9375C11.9269 12.9375 11.7637 12.888 11.625 12.7953C11.4862 12.7026 11.3781 12.5708 11.3142 12.4166C11.2504 12.2625 11.2337 12.0928 11.2662 11.9291C11.2988 11.7655 11.3791 11.6151 11.4971 11.4971C11.6151 11.3791 11.7655 11.2988 11.9291 11.2662C12.0928 11.2337 12.2625 11.2504 12.4166 11.3142C12.5708 11.3781 12.7026 11.4862 12.7953 11.625C12.888 11.7637 12.9375 11.9269 12.9375 12.0938C12.9375 12.3175 12.8486 12.5321 12.6904 12.6904C12.5321 12.8486 12.3175 12.9375 12.0938 12.9375ZM12.0938 10.125C11.9269 10.125 11.7637 10.0755 11.625 9.9828C11.4862 9.89009 11.3781 9.75831 11.3142 9.60414C11.2504 9.44996 11.2337 9.28031 11.2662 9.11664C11.2988 8.95297 11.3791 8.80263 11.4971 8.68463C11.6151 8.56663 11.7655 8.48627 11.9291 8.45371C12.0928 8.42116 12.2625 8.43787 12.4166 8.50173C12.5708 8.56559 12.7026 8.67373 12.7953 8.81249C12.888 8.95124 12.9375 9.11437 12.9375 9.28125C12.9375 9.50503 12.8486 9.71964 12.6904 9.87787C12.5321 10.0361 12.3175 10.125 12.0938 10.125ZM14.625 5.625H3.375V3.375H5.0625V3.9375C5.0625 4.08668 5.12176 4.22976 5.22725 4.33525C5.33274 4.44074 5.47582 4.5 5.625 4.5C5.77418 4.5 5.91726 4.44074 6.02275 4.33525C6.12824 4.22976 6.1875 4.08668 6.1875 3.9375V3.375H11.8125V3.9375C11.8125 4.08668 11.8718 4.22976 11.9773 4.33525C12.0827 4.44074 12.2258 4.5 12.375 4.5C12.5242 4.5 12.6673 4.44074 12.7727 4.33525C12.8782 4.22976 12.9375 4.08668 12.9375 3.9375V3.375H14.625V5.625Z" fill="#232323" fill-opacity="0.8"/>
</svg>
