<svg width="18" height="18" viewBox="0 0 18 18" fill="none" xmlns="http://www.w3.org/2000/svg">
<path d="M17.389 8.77219C17.3644 8.71664 16.7688 7.39547 15.4448 6.07148C13.6807 4.30734 11.4525 3.375 8.99999 3.375C6.54749 3.375 4.31929 4.30734 2.55515 6.07148C1.23117 7.39547 0.632806 8.71875 0.611009 8.77219C0.579026 8.84413 0.5625 8.92198 0.5625 9.0007C0.5625 9.07943 0.579026 9.15728 0.611009 9.22922C0.635618 9.28477 1.23117 10.6052 2.55515 11.9292C4.31929 13.6927 6.54749 14.625 8.99999 14.625C11.4525 14.625 13.6807 13.6927 15.4448 11.9292C16.7688 10.6052 17.3644 9.28477 17.389 9.22922C17.421 9.15728 17.4375 9.07943 17.4375 9.0007C17.4375 8.92198 17.421 8.84413 17.389 8.77219ZM8.99999 11.8125C8.44373 11.8125 7.89997 11.6475 7.43745 11.3385C6.97494 11.0295 6.61445 10.5902 6.40158 10.0763C6.18871 9.56238 6.13301 8.99688 6.24154 8.45131C6.35006 7.90574 6.61792 7.4046 7.01126 7.01126C7.40459 6.61793 7.90573 6.35006 8.4513 6.24154C8.99687 6.13302 9.56238 6.18872 10.0763 6.40159C10.5902 6.61446 11.0295 6.97495 11.3385 7.43746C11.6475 7.89997 11.8125 8.44374 11.8125 9C11.8125 9.74592 11.5162 10.4613 10.9887 10.9887C10.4613 11.5162 9.74592 11.8125 8.99999 11.8125Z" fill="#232323" fill-opacity="0.8"/>
</svg>
